<?xml version="1.0" encoding="UTF-8"?>
<!DOCTYPE svg PUBLIC "-//W3C//DTD SVG 1.1//EN" "http://www.w3.org/Graphics/SVG/1.1/DTD/svg11.dtd">
<!-- Creator: CorelDRAW X8 -->
<svg xmlns="http://www.w3.org/2000/svg" xml:space="preserve" width="12mm" height="12mm" version="1.1" style="shape-rendering:geometricPrecision; text-rendering:geometricPrecision; image-rendering:optimizeQuality; fill-rule:evenodd; clip-rule:evenodd"
viewBox="0 0 1200 1200"
 xmlns:xlink="http://www.w3.org/1999/xlink">
 <defs>
  <style type="text/css">
   <![CDATA[
    .fil0 {fill:white}
   ]]>
  </style>
 </defs>
 <g id="Layer_x0020_1">
  <metadata id="CorelCorpID_0Corel-Layer"/>
  <g id="_482774334448">
   <g>
    <g>
     <path class="fil0" d="M1086 982l-82 -135c-37,-63 -57,-135 -57,-208l0 -119c0,-150 -100,-276 -237,-317l0 -85c0,-53 -43,-95 -95,-95 -52,0 -95,42 -95,95l0 85c-137,41 -237,167 -237,317l0 119c0,73 -20,145 -57,208l-82 135c-4,8 -4,17 0,24 4,8 12,12 20,12l901 0c9,0 17,-4 21,-12 4,-7 4,-16 0,-24z"/>
    </g>
   </g>
   <g>
    <g>
     <path class="fil0" d="M466 1066c26,55 83,94 149,94 66,0 122,-39 149,-94l-298 0z"/>
    </g>
   </g>
  </g>
 </g>
</svg>
