<?xml version="1.0" encoding="UTF-8"?>
<!DOCTYPE svg PUBLIC "-//W3C//DTD SVG 1.1//EN" "http://www.w3.org/Graphics/SVG/1.1/DTD/svg11.dtd">
<!-- Creator: CorelDRAW X8 -->
<svg xmlns="http://www.w3.org/2000/svg" xml:space="preserve" width="12mm" height="12mm" version="1.1" style="shape-rendering:geometricPrecision; text-rendering:geometricPrecision; image-rendering:optimizeQuality; fill-rule:evenodd; clip-rule:evenodd"
viewBox="0 0 1200 1200"
 xmlns:xlink="http://www.w3.org/1999/xlink">
 <defs>
  <style type="text/css">
   <![CDATA[
    .fil0 {fill:gray}
   ]]>
  </style>
 </defs>
 <g id="Layer_x0020_1">
  <metadata id="CorelCorpID_0Corel-Layer"/>
  <path class="fil0" d="M1200 1105l-354 -354c59,-79 94,-176 94,-281 0,-259 -211,-470 -470,-470 -259,0 -470,211 -470,470 0,259 211,470 470,470 105,0 202,-35 281,-94l354 354 95 -95zm-1155 -635c0,-235 190,-425 425,-425 234,0 425,190 425,425 0,234 -191,425 -425,425 -235,0 -425,-191 -425,-425z"/>
 </g>
</svg>
